:version 1.10
:name ASF
:units
  mass 1
  length 1
  angle deg
:documentation
  ASF file generated by Kaydara
:root
  axis xyz
  order  tx ty tz rx ry rz
  position 0 0 0
  orientation 0 0 0
:bonedata
  begin
    id 1
    name RightUpLegDummy
    direction -1 2.30186e-007 8.31532e-007
    length 4.04083
    axis 0 0 0 xyz
  end
  begin
    id 2
    name RightUpLeg
    direction -0.000919234 -0.999985 0.00544864
    length 17.4221
    axis -3.80308 -0.00076134 -0.0523649 xyz
    dof rx ry rz
  end
  begin
    id 3
    name RightLeg
    direction -0.000919271 -0.999984 -0.00555045
    length 17.1239
    axis 4.00314 0.0181274 -0.183583 xyz
    dof rx ry rz
  end
  begin
    id 4
    name RightFoot
    direction -2.57843e-005 -4.04509e-007 1
    length 6.72091
    axis 8.18909e-005 -0.122003 -0.403008 xyz
    dof rx ry rz
  end
  begin
    id 5
    name RightToes
    direction 0.00116825 -0.014069 0.9999
    length 3.85082
    axis 0.000514414 0.540638 -0.356797 xyz
    dof rx ry rz
  end
  begin
    id 6
    name SpineDummy
    direction 0.0168869 0.966876 -0.254689
    length 6.99894
    axis 0 0 0 xyz
  end
  begin
    id 7
    name Spine
    direction -0.0132008 0.999903 0.00446247
    length 11.1999
    axis -0.00148109 0.00725429 0.756411 xyz
    dof rx ry rz
  end
  begin
    id 8
    name Spine1
    direction 0 0 0
    length 0
    axis -0.000934958 0.0245693 1.46543 xyz
    dof rx ry rz
  end
  begin
    id 9
    name HEadDummy
    direction -0.0255732 0.999672 0.00128215
    length 3.43865
    axis -0.000934958 0.0245693 1.46543 xyz
  end
  begin
    id 10
    name HEad
    direction -0.0472656 0.980052 0.19304
    length 5.12695
    axis -0.000934954 0.0245693 1.46543 xyz
    dof rx ry rz
  end
  begin
    id 11
    name LeftShoulder1Dummy
    direction 0.953098 0.301717 -0.023914
    length 3.68488
    axis -0.000934958 0.0245693 1.46543 xyz
  end
  begin
    id 12
    name LeftShoulder1
    direction 0.962466 0.271167 0.0112566
    length 3.13809
    axis -0.000934958 0.0245693 1.46543 xyz
    dof rx ry rz
  end
  begin
    id 13
    name LeftArm
    direction 0.999943 0.00455037 -0.00961766
    length 11.3419
    axis -23.1648 0.685459 1.22814 xyz
    dof rx ry rz
  end
  begin
    id 14
    name LeftForeArm
    direction 0.999332 0.0131969 0.0340885
    length 8.70632
    axis -9.90633 0.618216 0.0826942 xyz
    dof rx ry rz
  end
  begin
    id 15
    name LeftHand
    direction 0.994373 -0.0366703 0.0993905
    length 5.32135
    axis 0.00675269 0.680415 0.445699 xyz
    dof rx ry rz
  end
  begin
    id 16
    name RightShoulderDummy
    direction -0.967298 0.252589 -0.0230903
    length 3.68488
    axis -0.000934958 0.0245693 1.46543 xyz
  end
  begin
    id 17
    name RightShoulder
    direction -0.975062 0.221602 0.0120823
    length 3.13809
    axis 0.216257 0.0246515 1.45863 xyz
    dof rx ry rz
  end
  begin
    id 18
    name RightArm
    direction -0.99886 -0.00851186 -0.0469687
    length 10.3947
    axis -23.196 0.23503 -0.532632 xyz
    dof rx ry rz
  end
  begin
    id 19
    name RightForeArm
    direction -0.99909 0.00114866 0.0426317
    length 8.68355
    axis -9.91764 -0.134943 0.610517 xyz
    dof rx ry rz
  end
  begin
    id 20
    name RightHand
    direction -0.992888 -0.0489538 0.10852
    length 5.28593
    axis -0.00275396 -0.197403 0.246414 xyz
    dof rx ry rz
  end
  begin
    id 21
    name LeftUpLegDummy
    direction 1 -2.30186e-007 -8.31532e-007
    length 4.04083
    axis 0 0 0 xyz
  end
  begin
    id 22
    name LeftUpLeg
    direction -0.000920097 -1 2.79241e-006
    length 17.4221
    axis -3.48782 0.00143434 -0.0532288 xyz
    dof rx ry rz
  end
  begin
    id 23
    name LeftLeg
    direction -0.000920097 -1 2.7912e-006
    length 17.1239
    axis 3.68162 -0.00806512 -0.0529896 xyz
    dof rx ry rz
  end
  begin
    id 24
    name LeftFoot
    direction -2.57845e-005 -3.987e-007 1
    length 6.72091
    axis 3.02372e-005 -0.00147829 -0.214229 xyz
    dof rx ry rz
  end
  begin
    id 25
    name LeftToes
    direction 0.00813577 -0.00488255 0.999955
    length 3.85048
    axis 3.89895e-005 -0.0014783 -0.214229 xyz
    dof rx ry rz
  end
:hierarchy
  begin
    root RightUpLegDummy SpineDummy LeftUpLegDummy
    RightUpLegDummy RightUpLeg
    RightUpLeg RightLeg
    RightLeg RightFoot
    RightFoot RightToes
    SpineDummy Spine
    Spine Spine1
    Spine1 HEadDummy LeftShoulder1Dummy RightShoulderDummy
    HEadDummy HEad
    LeftShoulder1Dummy LeftShoulder1
    LeftShoulder1 LeftArm
    LeftArm LeftForeArm
    LeftForeArm LeftHand
    RightShoulderDummy RightShoulder
    RightShoulder RightArm
    RightArm RightForeArm
    RightForeArm RightHand
    LeftUpLegDummy LeftUpLeg
    LeftUpLeg LeftLeg
    LeftLeg LeftFoot
    LeftFoot LeftToes
  end

:SAMPLES-PER-SECOND 30
:FULLY-SPECIFIED
:DEGREES
22
root  -14.6263 34.5064 -14.9457 -170.424 -0.937546 179.772
RightUpLeg  -8.8288 -17.6136 -1.58956
RightLeg  6.5341 -0.548484 -0.0261798
RightFoot  3.65742 0.00957915 0.0915207
RightToes  -25.5565 -0.114258 -0.218226
Spine  -2.61559 -0.125538 0.258387
Spine1  -5.31506 -0.187903 1.02558
HEad  -62.6042 -2.41683 7.09193
LeftShoulder1  -1.94126e-019 -3.10601e-018 -2.51263e-017
LeftArm  -14.1288 26.3831 -80.5558
LeftForeArm  31.2694 -15.9246 -2.52399
LeftHand  -0.376067 -0.218243 7.96158
RightShoulder  -4.96962e-017 0 -2.36833e-017
RightArm  -29.173 -24.8206 73.8059
RightForeArm  56.7264 14.1656 1.22948
RightHand  -0.351875 -1.19142 -9.4997
LeftUpLeg  -8.03285 3.43846 3.341
LeftLeg  6.41239 11.7081 0.553618
LeftFoot  4.90756 -0.047399 1.10829
LeftToes  -25.0199 2.03064e-006 1.83538e-008
23
root  -14.6277 34.5079 -14.9459 -170.422 -0.980515 179.769
RightUpLeg  -8.80953 -17.6225 -1.59746
RightLeg  6.51043 -0.581606 -0.0275874
RightFoot  3.6664 0.00957915 0.0915207
RightToes  -25.5727 -0.114164 -0.218226
Spine  -2.62677 -0.127457 0.266808
Spine1  -5.3372 -0.202199 1.04333
HEad  -62.5882 -2.30628 7.03156
LeftShoulder1  -1.94126e-019 -3.10601e-018 -2.51263e-017
LeftArm  -14.0485 26.4187 -80.523
LeftForeArm  31.321 -15.9754 -2.52806
LeftHand  -0.376798 -0.426879 7.97902
RightShoulder  -4.96962e-017 0 -2.36833e-017
RightArm  -29.1604 -24.792 73.7677
RightForeArm  56.7488 14.1232 1.23903
RightHand  -0.350024 -1.17152 -9.54484
LeftUpLeg  -8.0318 3.41259 3.33701
LeftLeg  6.39023 11.6886 0.548213
LeftFoot  4.9205 -0.0474815 1.10957
LeftToes  -25.027 2.03064e-006 1.83538e-008
24
root  -14.629 34.5109 -14.9434 -170.423 -1.01317 179.763
RightUpLeg  -8.79736 -17.6132 -1.60166
RightLeg  6.49262 -0.622788 -0.0294253
RightFoot  3.68816 0.00957915 0.0915207
RightToes  -25.5811 -0.114085 -0.218226
Spine  -2.63004 -0.127693 0.276147
Spine1  -5.34378 -0.19131 1.06119
HEad  -62.6087 -2.14614 7.02213
LeftShoulder1  -1.94126e-019 -3.10601e-018 -2.51263e-017
LeftArm  -13.9926 26.4002 -80.5257
LeftForeArm  31.2978 -16.0729 -2.54366
LeftHand  -0.377437 -0.366055 7.94793
RightShoulder  -4.96962e-017 0 -2.36833e-017
RightArm  -29.138 -24.7595 73.7238
RightForeArm  56.768 14.1275 1.23683
RightHand  -0.350767 -1.15055 -9.50006
LeftUpLeg  -8.0259 3.395 3.33341
LeftLeg  6.36113 11.6749 0.54168
LeftFoot  4.95046 -0.0478138 1.11474
LeftToes  -25.0004 2.03064e-006 1.83538e-008
25
root  -14.6298 34.5139 -14.9378 -170.429 -1.05646 179.755
RightUpLeg  -8.77611 -17.626 -1.60784
RightLeg  6.45599 -0.6616 -0.030905
RightFoot  3.69623 0.00957915 0.0915207
RightToes  -25.5197 -0.114015 -0.218226
Spine  -2.63684 -0.126287 0.28609
Spine1  -5.35733 -0.183728 1.08172
HEad  -62.5556 -1.97095 6.96237
LeftShoulder1  -1.94126e-019 -3.10601e-018 -2.51263e-017
LeftArm  -13.9533 26.3944 -80.5333
LeftForeArm  31.2658 -16.1654 -2.55731
LeftHand  -0.377833 -0.350817 7.9431
RightShoulder  -4.96962e-017 0 -2.36833e-017
RightArm  -29.0777 -24.7088 73.6667
RightForeArm  56.7386 14.1326 1.23464
RightHand  -0.34956 -1.15856 -9.52273
LeftUpLeg  -8.0109 3.36057 3.32871
LeftLeg  6.30587 11.6721 0.530355
LeftFoot  4.97911 -0.0482178 1.12102
LeftToes  -24.9796 2.03064e-006 1.83538e-008
26
root  -14.6304 34.5163 -14.9326 -170.434 -1.09711 179.748
RightUpLeg  -8.7668 -17.6485 -1.61308
RightLeg  6.44366 -0.675198 -0.0314177
RightFoot  3.69306 0.00957915 0.0915207
RightToes  -25.4524 -0.113948 -0.218226
Spine  -2.63393 -0.12161 0.291694
Spine1  -5.35167 -0.17242 1.09298
HEad  -62.5469 -1.81579 6.88322
LeftShoulder1  -1.94126e-019 -3.10601e-018 -2.51263e-017
LeftArm  -13.947 26.3652 -80.5526
LeftForeArm  31.3149 -16.1889 -2.55967
LeftHand  -0.379783 -0.403687 7.89139
RightShoulder  -4.96962e-017 0 -2.36833e-017
RightArm  -29.0327 -24.6648 73.6232
RightForeArm  56.6875 14.1509 1.22984
RightHand  -0.350189 -1.14176 -9.48396
LeftUpLeg  -8.00556 3.30443 3.32289
LeftLeg  6.27379 11.6871 0.524525
LeftFoot  5.01821 -0.048849 1.13083
LeftToes  -25.0318 2.03064e-006 1.83538e-008
27
root  -14.6309 34.5185 -14.9273 -170.439 -1.13803 179.741
RightUpLeg  -8.75272 -17.6614 -1.62117
RightLeg  6.42533 -0.697274 -0.0322578
RightFoot  3.71322 0.00957915 0.0915207
RightToes  -25.5192 -0.113877 -0.218226
Spine  -2.62908 -0.114039 0.297932
Spine1  -5.342 -0.15531 1.10529
HEad  -62.5204 -1.65492 6.79835
LeftShoulder1  -1.94126e-019 -3.10601e-018 -2.51263e-017
LeftArm  -13.9181 26.3374 -80.626
LeftForeArm  31.1727 -16.2627 -2.57306
LeftHand  -0.376803 -0.213281 8.00341
RightShoulder  -4.96962e-017 0 -2.36833e-017
RightArm  -28.9804 -24.6137 73.569
RightForeArm  56.6515 14.1642 1.22734
RightHand  -0.348885 -1.1687 -9.51232
LeftUpLeg  -7.99547 3.26485 3.31856
LeftLeg  6.23068 11.6851 0.515693
LeftFoot  5.05742 -0.0493793 1.13907
LeftToes  -25.0768 2.03064e-006 1.83538e-008
28
root  -14.6309 34.5208 -14.9216 -170.443 -1.17624 179.733
RightUpLeg  -8.74807 -17.6776 -1.62582
RightLeg  6.41661 -0.716668 -0.0330764
RightFoot  3.72996 0.00957915 0.0915207
RightToes  -25.5549 -0.113798 -0.218226
Spine  -2.62142 -0.109294 0.304024
Spine1  -5.32679 -0.143432 1.11759
HEad  -62.4403 -1.48142 6.66735
LeftShoulder1  -1.94126e-019 -3.10601e-018 -2.51263e-017
LeftArm  -13.8976 26.3344 -80.646
LeftForeArm  31.2247 -16.2975 -2.57574
LeftHand  -0.380303 -0.356683 7.91234
RightShoulder  -4.96962e-017 0 -2.36833e-017
RightArm  -28.9078 -24.5544 73.5077
RightForeArm  56.6363 14.1917 1.22373
RightHand  -0.34871 -1.1602 -9.50353
LeftUpLeg  -7.98848 3.24461 3.31583
LeftLeg  6.1927 11.6648 0.507118
LeftFoot  5.07388 -0.0495034 1.141
LeftToes  -25.0454 2.03064e-006 1.83538e-008
29
root  -14.6306 34.5232 -14.9159 -170.446 -1.20631 179.726
RightUpLeg  -8.74977 -17.6625 -1.62581
RightLeg  6.41391 -0.755272 -0.0349306
RightFoot  3.7329 0.009729 0.0893795
RightToes  -25.5206 -0.113704 -0.218226
Spine  -2.61191 -0.106106 0.309649
Spine1  -5.30797 -0.134368 1.12828
HEad  -62.2695 -1.30884 6.47248
LeftShoulder1  -1.94126e-019 -3.10601e-018 -2.51263e-017
LeftArm  -13.8578 26.3516 -80.6908
LeftForeArm  31.1104 -16.3859 -2.58709
LeftHand  -0.38183 -0.332339 7.87321
RightShoulder  -4.96962e-017 0 -2.36833e-017
RightArm  -28.8584 -24.4745 73.448
RightForeArm  56.6335 14.2059 1.22223
RightHand  -0.34816 -1.15759 -9.50681
LeftUpLeg  -7.98589 3.21947 3.31303
LeftLeg  6.15962 11.6545 0.49999
LeftFoot  5.10123 -0.0498274 1.14604
LeftToes  -25.0012 2.03064e-006 1.83538e-008
30
root  -14.629 34.5254 -14.9093 -170.448 -1.23857 179.719
RightUpLeg  -8.75372 -17.6772 -1.62674
RightLeg  6.41499 -0.776768 -0.0359198
RightFoot  3.73751 0.00984413 0.0877344
RightToes  -25.5156 -0.113589 -0.218226
Spine  -2.60235 -0.100116 0.312021
Spine1  -5.28902 -0.120516 1.13157
HEad  -62.0651 -1.15946 6.3679
LeftShoulder1  -1.94126e-019 -3.10601e-018 -2.51263e-017
LeftArm  -13.8248 26.3455 -80.7217
LeftForeArm  31.0751 -16.3926 -2.5861
LeftHand  -0.380867 -0.28794 7.94005
RightShoulder  -4.96962e-017 0 -2.36833e-017
RightArm  -28.8133 -24.4075 73.3861
RightForeArm  56.6119 14.2168 1.221
RightHand  -0.348481 -1.15375 -9.47929
LeftUpLeg  -7.98479 3.17575 3.30946
LeftLeg  6.12924 11.6724 0.494593
LeftFoot  5.1366 -0.050426 1.15534
LeftToes  -25.0049 2.03064e-006 1.83538e-008
31
root  -14.6268 34.5274 -14.9029 -170.447 -1.26514 179.713
RightUpLeg  -8.76346 -17.6984 -1.62643
RightLeg  6.42125 -0.784901 -0.0342033
RightFoot  3.74204 0.00993638 0.0864163
RightToes  -25.5212 -0.113448 -0.218226
Spine  -2.59777 -0.0948263 0.313173
Spine1  -5.28004 -0.107913 1.13511
HEad  -61.7147 -1.0289 6.15756
LeftShoulder1  -1.94126e-019 -3.10601e-018 -2.51263e-017
LeftArm  -13.8283 26.3361 -80.7441
LeftForeArm  31.0837 -16.3415 -2.57707
LeftHand  -0.381461 -0.310383 7.95614
RightShoulder  -4.96962e-017 0 -2.36833e-017
RightArm  -28.7835 -24.3425 73.3244
RightForeArm  56.5935 14.2242 1.22081
RightHand  -0.347059 -1.16864 -9.51181
LeftUpLeg  -7.98886 3.15324 3.30765
LeftLeg  6.10504 11.66 0.489176
LeftFoot  5.15993 -0.0506837 1.15935
LeftToes  -24.9551 2.03064e-006 1.83538e-008
32
root  -14.6243 34.529 -14.8983 -170.44 -1.29385 179.705
RightUpLeg  -8.76366 -17.7287 -1.62324
RightLeg  6.40322 -0.774867 -0.0356702
RightFoot  3.741 0.0100228 0.085182
RightToes  -25.5114 -0.113274 -0.218226
Spine  -2.59124 -0.0875424 0.314659
Spine1  -5.26712 -0.0917917 1.13544
HEad  -61.2471 -0.904056 5.82531
LeftShoulder1  -1.94126e-019 -3.10601e-018 -2.51263e-017
LeftArm  -13.8516 26.3221 -80.7295
LeftForeArm  31.1457 -16.2916 -2.56747
LeftHand  -0.38385 -0.289482 7.88744
RightShoulder  -4.96962e-017 0 -2.36833e-017
RightArm  -28.7409 -24.2927 73.2695
RightForeArm  56.5175 14.2473 1.21768
RightHand  -0.346837 -1.16345 -9.5038
LeftUpLeg  -8.00121 3.12154 3.30588
LeftLeg  6.08656 11.6586 0.486171
LeftFoot  5.1919 -0.0511467 1.16655
LeftToes  -24.989 2.03064e-006 1.83538e-008
33
root  -14.621 34.53 -14.8913 -170.427 -1.33385 179.698
RightUpLeg  -8.77475 -17.7435 -1.61631
RightLeg  6.38556 -0.812561 -0.0372082
RightFoot  3.727 0.0101203 0.0837883
RightToes  -25.4145 -0.113062 -0.218226
Spine  -2.57942 -0.0844397 0.316359
Spine1  -5.24352 -0.0840928 1.13889
HEad  -60.9081 -0.785748 5.59577
LeftShoulder1  -1.94126e-019 -3.10601e-018 -2.51263e-017
LeftArm  -13.9209 26.2713 -80.7283
LeftForeArm  31.1466 -16.1827 -2.55252
LeftHand  -0.382809 -0.333114 7.98094
RightShoulder  -4.96962e-017 0 -2.36833e-017
RightArm  -28.6971 -24.233 73.2117
RightForeArm  56.4549 14.2821 1.21379
RightHand  -0.34581 -1.18162 -9.52352
LeftUpLeg  -8.02275 3.08359 3.30535
LeftLeg  6.06611 11.662 0.481383
LeftFoot  5.20983 -0.0513976 1.17045
LeftToes  -24.9091 2.03064e-006 1.83538e-008
